# xmcd CD database file
#
# Track frame offsets:
#	150
#	15445
#	30485
#	45912
#	60955
#	77777
#	96322
#	111040
#	127175
#	147177
#
# Disc length: 2300 seconds
#
# Revision: 1
# Processed by: cddbd v1.4PL0 Copyright (c) Steve Scherf et al.
# Submitted via: CDex 1.51
#
DISCID=7508fa0a
DTITLE=Billy Dean - Love Songs
DYEAR=2000
DGENRE=Country
TTITLE0=It's What I Do
TTITLE1=If There Hadn't Been You
TTITLE2=We Just Disagree
TTITLE3=Somewhere In My Broken Heart
TTITLE4=Real Man
TTITLE5=Play Something We Can Dance To
TTITLE6=You Don't Count The Cost
TTITLE7=If I Could Find The Heart (To Love Again)
TTITLE8=I Wouldn't Be A Man
TTITLE9=Steam Roller
EXTD=2000 Capitol Nashville YEAR: 2000
EXTT0=
EXTT1=
EXTT2=
EXTT3=
EXTT4=
EXTT5=
EXTT6=
EXTT7=
EXTT8=
EXTT9=
PLAYORDER=
